<svg xmlns="http://www.w3.org/2000/svg" width="16.54in" height="11.69in" viewBox="0 0 1654 1169">
<style>
.title{font:700 50px Georgia;fill:#19272b} .sub{font:18px Arial;letter-spacing:4px;fill:#7b2638}
.place{font:700 17px Georgia;fill:#19272b} .small{font:700 11px Arial;letter-spacing:2px;fill:#7b2638}
.tiny{font:12px Arial;fill:#19272b} .label{font:700 16px Arial;fill:#19272b} .n{font:15px Georgia;fill:#19272b}
.region{fill:#e9e0ca;stroke:#19272b;stroke-width:3} .road{stroke:#7e6a4b;stroke-width:7;opacity:.75}
.river{fill:none;stroke:#557e8a;stroke-width:18;opacity:.55} .coast{fill:#a7bec1;opacity:.42}
.state,.track{fill:#f3ead6;stroke:#7b2638;stroke-width:2} .burh{fill:#c49a45;stroke:#19272b;stroke-width:2}
</style>
<rect width="1654" height="1169" fill="#d9cfb8"/>
<path d="M0 760Q250 700 410 780T800 800T1250 750T1654 700V1169H0Z" class="coast"/>
<path d="M1510 245Q1300 300 1190 360T1010 330T820 400" class="river"/>
<rect x="24" y="24" width="1606" height="1121" fill="none" stroke="#7b2638" stroke-width="4"/>
<text x="72" y="88" class="title">ALFRED</text>
<text x="74" y="126" class="sub">THE BURDEN OF WESSEX</text>
<text x="1582" y="88" text-anchor="end" class="small">THE BURDEN OF COMMAND SERIES · VOLUME II</text>
<g><path d="M180 540L390 470" class="road"/><path d="M180 540L430 680" class="road"/><path d="M390 470L430 680" class="road"/><path d="M390 470L640 500" class="road"/><path d="M430 680L640 500" class="road"/><path d="M430 680L690 700" class="road"/><path d="M640 500L690 700" class="road"/><path d="M640 500L820 400" class="road"/><path d="M690 700L820 400" class="road"/><path d="M690 700L1130 680" class="road"/><path d="M820 400L1010 330" class="road"/><path d="M820 400L760 190" class="road"/><path d="M1130 680L1190 360" class="road"/><path d="M1010 330L1190 360" class="road"/><path d="M1010 330L760 190" class="road"/><path d="M1190 360L760 190" class="road"/></g><g><path d="M80 485Q180 460 280 485L272 610Q180 628 88 610Z" class="region"/>
<text x="180" y="520" text-anchor="middle" class="place">EXETER</text>
<text x="180" y="542" text-anchor="middle" class="tiny"></text>
<text x="180" y="565" text-anchor="middle" class="small">FYRD / READINESS</text><circle cx="132" cy="592" r="17" class="state"/><text x="132" y="597" text-anchor="middle" class="tiny">X</text><circle cx="180" cy="592" r="17" class="state"/><text x="180" y="597" text-anchor="middle" class="tiny">D</text><circle cx="228" cy="592" r="17" class="state"/><text x="228" y="597" text-anchor="middle" class="tiny">R</text><path d="M290 415Q390 390 490 415L482 540Q390 558 298 540Z" class="region"/>
<text x="390" y="450" text-anchor="middle" class="place">ATHELNEY</text>
<text x="390" y="472" text-anchor="middle" class="tiny"></text>
<text x="390" y="495" text-anchor="middle" class="small">FYRD / READINESS</text><circle cx="342" cy="522" r="17" class="state"/><text x="342" y="527" text-anchor="middle" class="tiny">X</text><circle cx="390" cy="522" r="17" class="state"/><text x="390" y="527" text-anchor="middle" class="tiny">D</text><circle cx="438" cy="522" r="17" class="state"/><text x="438" y="527" text-anchor="middle" class="tiny">R</text><path d="M465 428l18 8v20c0 16-9 27-18 33-9-6-18-17-18-33v-20Z" class="burh"/><path d="M330 625Q430 600 530 625L522 750Q430 768 338 750Z" class="region"/>
<text x="430" y="660" text-anchor="middle" class="place">WAREHAM</text>
<text x="430" y="682" text-anchor="middle" class="tiny"></text>
<text x="430" y="705" text-anchor="middle" class="small">FYRD / READINESS</text><circle cx="382" cy="732" r="17" class="state"/><text x="382" y="737" text-anchor="middle" class="tiny">X</text><circle cx="430" cy="732" r="17" class="state"/><text x="430" y="737" text-anchor="middle" class="tiny">D</text><circle cx="478" cy="732" r="17" class="state"/><text x="478" y="737" text-anchor="middle" class="tiny">R</text><path d="M540 445Q640 420 740 445L732 570Q640 588 548 570Z" class="region"/>
<text x="640" y="480" text-anchor="middle" class="place">WILTON</text>
<text x="640" y="502" text-anchor="middle" class="tiny"></text>
<text x="640" y="525" text-anchor="middle" class="small">FYRD / READINESS</text><circle cx="592" cy="552" r="17" class="state"/><text x="592" y="557" text-anchor="middle" class="tiny">X</text><circle cx="640" cy="552" r="17" class="state"/><text x="640" y="557" text-anchor="middle" class="tiny">D</text><circle cx="688" cy="552" r="17" class="state"/><text x="688" y="557" text-anchor="middle" class="tiny">R</text><path d="M590 645Q690 620 790 645L782 770Q690 788 598 770Z" class="region"/>
<text x="690" y="680" text-anchor="middle" class="place">WINCHESTER</text>
<text x="690" y="702" text-anchor="middle" class="tiny"></text>
<text x="690" y="725" text-anchor="middle" class="small">FYRD / READINESS</text><circle cx="642" cy="752" r="17" class="state"/><text x="642" y="757" text-anchor="middle" class="tiny">X</text><circle cx="690" cy="752" r="17" class="state"/><text x="690" y="757" text-anchor="middle" class="tiny">D</text><circle cx="738" cy="752" r="17" class="state"/><text x="738" y="757" text-anchor="middle" class="tiny">R</text><path d="M765 658l18 8v20c0 16-9 27-18 33-9-6-18-17-18-33v-20Z" class="burh"/><path d="M720 345Q820 320 920 345L912 470Q820 488 728 470Z" class="region"/>
<text x="820" y="380" text-anchor="middle" class="place">READING</text>
<text x="820" y="402" text-anchor="middle" class="tiny"></text>
<text x="820" y="425" text-anchor="middle" class="small">FYRD / READINESS</text><circle cx="772" cy="452" r="17" class="state"/><text x="772" y="457" text-anchor="middle" class="tiny">X</text><circle cx="820" cy="452" r="17" class="state"/><text x="820" y="457" text-anchor="middle" class="tiny">D</text><circle cx="868" cy="452" r="17" class="state"/><text x="868" y="457" text-anchor="middle" class="tiny">R</text><path d="M895 358l18 8v20c0 16-9 27-18 33-9-6-18-17-18-33v-20Z" class="burh"/><path d="M1030 625Q1130 600 1230 625L1222 750Q1130 768 1038 750Z" class="region"/>
<text x="1130" y="660" text-anchor="middle" class="place">KENT</text>
<text x="1130" y="682" text-anchor="middle" class="tiny"></text>
<text x="1130" y="705" text-anchor="middle" class="small">FYRD / READINESS</text><circle cx="1082" cy="732" r="17" class="state"/><text x="1082" y="737" text-anchor="middle" class="tiny">X</text><circle cx="1130" cy="732" r="17" class="state"/><text x="1130" y="737" text-anchor="middle" class="tiny">D</text><circle cx="1178" cy="732" r="17" class="state"/><text x="1178" y="737" text-anchor="middle" class="tiny">R</text><path d="M1205 638l18 8v20c0 16-9 27-18 33-9-6-18-17-18-33v-20Z" class="burh"/><path d="M910 275Q1010 250 1110 275L1102 400Q1010 418 918 400Z" class="region"/>
<text x="1010" y="310" text-anchor="middle" class="place">WALLINGFORD</text>
<text x="1010" y="332" text-anchor="middle" class="tiny"></text>
<text x="1010" y="355" text-anchor="middle" class="small">FYRD / READINESS</text><circle cx="962" cy="382" r="17" class="state"/><text x="962" y="387" text-anchor="middle" class="tiny">X</text><circle cx="1010" cy="382" r="17" class="state"/><text x="1010" y="387" text-anchor="middle" class="tiny">D</text><circle cx="1058" cy="382" r="17" class="state"/><text x="1058" y="387" text-anchor="middle" class="tiny">R</text><path d="M1090 305Q1190 280 1290 305L1282 430Q1190 448 1098 430Z" class="region"/>
<text x="1190" y="340" text-anchor="middle" class="place">LONDON</text>
<text x="1190" y="362" text-anchor="middle" class="tiny"></text>
<text x="1190" y="385" text-anchor="middle" class="small">FYRD / READINESS</text><circle cx="1142" cy="412" r="17" class="state"/><text x="1142" y="417" text-anchor="middle" class="tiny">X</text><circle cx="1190" cy="412" r="17" class="state"/><text x="1190" y="417" text-anchor="middle" class="tiny">D</text><circle cx="1238" cy="412" r="17" class="state"/><text x="1238" y="417" text-anchor="middle" class="tiny">R</text><path d="M1265 318l18 8v20c0 16-9 27-18 33-9-6-18-17-18-33v-20Z" class="burh"/><path d="M660 135Q760 110 860 135L852 260Q760 278 668 260Z" class="region"/>
<text x="760" y="170" text-anchor="middle" class="place">ENGLISH</text>
<text x="760" y="192" text-anchor="middle" class="tiny">MERCIA</text>
<text x="760" y="215" text-anchor="middle" class="small">FYRD / READINESS</text><circle cx="712" cy="242" r="17" class="state"/><text x="712" y="247" text-anchor="middle" class="tiny">X</text><circle cx="760" cy="242" r="17" class="state"/><text x="760" y="247" text-anchor="middle" class="tiny">D</text><circle cx="808" cy="242" r="17" class="state"/><text x="808" y="247" text-anchor="middle" class="tiny">R</text><path d="M835 148l18 8v20c0 16-9 27-18 33-9-6-18-17-18-33v-20Z" class="burh"/></g>
<text x="1320" y="255" class="small" fill="#315b67">THAMES / RIVER APPROACH</text>
<rect x="55" y="865" width="900" height="225" rx="12" fill="#eee5d1" stroke="#19272b" stroke-width="3"/>
<text x="85" y="910" class="label">DANISH HOST PURPOSES</text>
<text x="85" y="950" class="place">RAID</text><text x="245" y="950" class="small">WEALTH / READINESS</text>
<text x="85" y="990" class="place">SEEK CAMP</text><text x="245" y="990" class="small">BURH / ROYAL SEAT</text>
<text x="520" y="950" class="place">DRAW FYRD</text><text x="680" y="950" class="small">READY REGION</text>
<text x="520" y="990" class="place">JOIN</text><text x="680" y="990" class="small">STRONGEST ARMY</text>
<text x="85" y="1045" class="small">X EXHAUSTED · D DEPLETED · R READY · SHIELD = BURH SITE</text>
<g><text x="1050" y="864" text-anchor="end" class="label">LEGITIMACY</text><rect x="1080" y="835" width="54" height="42" rx="4" class="track"/><text x="1107" y="863" text-anchor="middle" class="n">0</text><rect x="1138" y="835" width="54" height="42" rx="4" class="track"/><text x="1165" y="863" text-anchor="middle" class="n">1</text><rect x="1196" y="835" width="54" height="42" rx="4" class="track"/><text x="1223" y="863" text-anchor="middle" class="n">2</text><rect x="1254" y="835" width="54" height="42" rx="4" class="track"/><text x="1281" y="863" text-anchor="middle" class="n">3</text><rect x="1312" y="835" width="54" height="42" rx="4" class="track"/><text x="1339" y="863" text-anchor="middle" class="n">4</text><rect x="1370" y="835" width="54" height="42" rx="4" class="track"/><text x="1397" y="863" text-anchor="middle" class="n">5</text><rect x="1428" y="835" width="54" height="42" rx="4" class="track"/><text x="1455" y="863" text-anchor="middle" class="n">6</text><rect x="1486" y="835" width="54" height="42" rx="4" class="track"/><text x="1513" y="863" text-anchor="middle" class="n">7</text><text x="1050" y="914" text-anchor="end" class="label">OBLIGATION</text><rect x="1080" y="885" width="54" height="42" rx="4" class="track"/><text x="1107" y="913" text-anchor="middle" class="n">0</text><rect x="1138" y="885" width="54" height="42" rx="4" class="track"/><text x="1165" y="913" text-anchor="middle" class="n">1</text><rect x="1196" y="885" width="54" height="42" rx="4" class="track"/><text x="1223" y="913" text-anchor="middle" class="n">2</text><rect x="1254" y="885" width="54" height="42" rx="4" class="track"/><text x="1281" y="913" text-anchor="middle" class="n">3</text><rect x="1312" y="885" width="54" height="42" rx="4" class="track"/><text x="1339" y="913" text-anchor="middle" class="n">4</text><rect x="1370" y="885" width="54" height="42" rx="4" class="track"/><text x="1397" y="913" text-anchor="middle" class="n">5</text><rect x="1428" y="885" width="54" height="42" rx="4" class="track"/><text x="1455" y="913" text-anchor="middle" class="n">6</text><rect x="1486" y="885" width="54" height="42" rx="4" class="track"/><text x="1513" y="913" text-anchor="middle" class="n">7</text><text x="1050" y="964" text-anchor="end" class="label">WEALTH</text><rect x="1080" y="935" width="54" height="42" rx="4" class="track"/><text x="1107" y="963" text-anchor="middle" class="n">0</text><rect x="1138" y="935" width="54" height="42" rx="4" class="track"/><text x="1165" y="963" text-anchor="middle" class="n">1</text><rect x="1196" y="935" width="54" height="42" rx="4" class="track"/><text x="1223" y="963" text-anchor="middle" class="n">2</text><rect x="1254" y="935" width="54" height="42" rx="4" class="track"/><text x="1281" y="963" text-anchor="middle" class="n">3</text><rect x="1312" y="935" width="54" height="42" rx="4" class="track"/><text x="1339" y="963" text-anchor="middle" class="n">4</text><rect x="1370" y="935" width="54" height="42" rx="4" class="track"/><text x="1397" y="963" text-anchor="middle" class="n">5</text><rect x="1428" y="935" width="54" height="42" rx="4" class="track"/><text x="1455" y="963" text-anchor="middle" class="n">6</text><rect x="1486" y="935" width="54" height="42" rx="4" class="track"/><text x="1513" y="963" text-anchor="middle" class="n">7</text><text x="1050" y="1014" text-anchor="end" class="label">REFORM</text><rect x="1080" y="985" width="54" height="42" rx="4" class="track"/><text x="1107" y="1013" text-anchor="middle" class="n">0</text><rect x="1138" y="985" width="54" height="42" rx="4" class="track"/><text x="1165" y="1013" text-anchor="middle" class="n">1</text><rect x="1196" y="985" width="54" height="42" rx="4" class="track"/><text x="1223" y="1013" text-anchor="middle" class="n">2</text><rect x="1254" y="985" width="54" height="42" rx="4" class="track"/><text x="1281" y="1013" text-anchor="middle" class="n">3</text><rect x="1312" y="985" width="54" height="42" rx="4" class="track"/><text x="1339" y="1013" text-anchor="middle" class="n">4</text><rect x="1370" y="985" width="54" height="42" rx="4" class="track"/><text x="1397" y="1013" text-anchor="middle" class="n">5</text><rect x="1428" y="985" width="54" height="42" rx="4" class="track"/><text x="1455" y="1013" text-anchor="middle" class="n">6</text><text x="1050" y="1064" text-anchor="end" class="label">SERVICE</text><rect x="1080" y="1035" width="54" height="42" rx="4" class="track"/><text x="1107" y="1063" text-anchor="middle" class="n">0</text><rect x="1138" y="1035" width="54" height="42" rx="4" class="track"/><text x="1165" y="1063" text-anchor="middle" class="n">1</text><rect x="1196" y="1035" width="54" height="42" rx="4" class="track"/><text x="1223" y="1063" text-anchor="middle" class="n">2</text><rect x="1254" y="1035" width="54" height="42" rx="4" class="track"/><text x="1281" y="1063" text-anchor="middle" class="n">3</text></g>
<text x="72" y="1135" class="small">CALL THE FYRD. BEAR THE SERVICE. RELEASE THE LAND.</text>
<text x="1582" y="1135" text-anchor="end" class="tiny">PROTOTYPE 0.6</text>
</svg>